<svg width="17" height="17" viewBox="0 0 17 17" fill="none" xmlns="http://www.w3.org/2000/svg">
<path d="M5.57012 0.5C2.98354 0.5 0.880371 2.5988 0.880371 5.18V11.66C0.880371 14.2412 2.98354 16.34 5.57012 16.34H12.0636C14.6502 16.34 16.7534 14.2412 16.7534 11.66V5.18C16.7534 2.5988 14.6502 0.5 12.0636 0.5H5.57012ZM13.1459 3.38C13.5427 3.38 13.8674 3.704 13.8674 4.1C13.8674 4.496 13.5427 4.82 13.1459 4.82C12.749 4.82 12.4244 4.496 12.4244 4.1C12.4244 3.704 12.749 3.38 13.1459 3.38ZM8.81687 4.46C11.0066 4.46 12.7851 6.2348 12.7851 8.42C12.7851 10.6052 11.0066 12.38 8.81687 12.38C6.62712 12.38 4.84862 10.6052 4.84862 8.42C4.84862 6.2348 6.62712 4.46 8.81687 4.46ZM8.81687 5.18C7.02755 5.18 5.57012 6.6344 5.57012 8.42C5.57012 10.2056 7.02755 11.66 8.81687 11.66C10.6062 11.66 12.0636 10.2056 12.0636 8.42C12.0636 6.6344 10.6062 5.18 8.81687 5.18Z" fill="white"/>
</svg>
